# xmcd
#
# Track frame offsets: 
#        150
#        19183
#        39239
#        58406
#        79956
#        97786
#        110411
#        127366
#        144494
#        161593
#        178164
#        192904
#        210087
#        223992
#        237680
#        260421
#
# Disc length: 3613 seconds
#
# Revision: 0
# Processed by: cddbd v1.5.2PL0 Copyright (c) Steve Scherf et al.
# Submitted via: ExactAudioCopyFreeDBPlugin 1.0
#
DISCID=ee0e1b10
DTITLE=Brixtonboogie - Crossing Borders
DYEAR=2013
DGENRE=Blues
TTITLE0=Heaven
TTITLE1=Love ain't just a word
TTITLE2=John the Revelator
TTITLE3=Something within Me
TTITLE4=Black Betty
TTITLE5=Death House Blues
TTITLE6=Blood and Fire
TTITLE7=(I can't get you) Out of my Head
TTITLE8=Early in October
TTITLE9=U gotta move
TTITLE10=Way down the Hole
TTITLE11=Trouble me no
TTITLE12=Lightnin' and Thunder
TTITLE13=My Heartbeat's drummin'
TTITLE14=Back Home
TTITLE15=Wayfaring Stranger
EXTD=
EXTT0=
EXTT1=
EXTT2=
EXTT3=
EXTT4=
EXTT5=
EXTT6=
EXTT7=
EXTT8=
EXTT9=
EXTT10=
EXTT11=
EXTT12=
EXTT13=
EXTT14=
EXTT15=
PLAYORDER=
